<svg width="38" height="47" viewBox="0 0 38 47" fill="none" xmlns="http://www.w3.org/2000/svg">
<g clip-path="url(#clip0_141_3886)">
<path d="M36.7909 16.0223C36.5201 16.2338 31.7398 18.9457 31.7398 24.9758C31.7398 31.9506 37.8226 34.4181 38.0047 34.4792C37.9767 34.6296 37.0383 37.8585 34.7975 41.1485C32.7995 44.0437 30.7128 46.9342 27.5383 46.9342C24.3639 46.9342 23.5469 45.0777 19.8823 45.0777C16.3111 45.0777 15.0413 46.9953 12.1376 46.9953C9.23391 46.9953 7.20786 44.3163 4.87838 41.0263C2.1801 37.1629 0 31.161 0 25.4646C0 16.3278 5.90074 11.4821 11.7081 11.4821C14.7939 11.4821 17.3661 13.5219 19.3034 13.5219C21.1474 13.5219 24.0231 11.3599 27.5337 11.3599C28.8641 11.3599 33.6445 11.4821 36.7909 16.0223ZM25.8671 7.4918C27.3189 5.7575 28.3459 3.3511 28.3459 0.9447C28.3459 0.611 28.3179 0.2726 28.2572 0C25.8951 0.0893 23.0848 1.5839 21.3902 3.5626C20.0597 5.0854 18.8179 7.4918 18.8179 9.9311C18.8179 10.2977 18.8786 10.6643 18.9066 10.7818C19.056 10.81 19.2988 10.8429 19.5415 10.8429C21.6609 10.8429 24.3265 9.4141 25.8671 7.4918Z" fill="black"/>
</g>
<defs>
<clipPath id="clip0_141_3886">
<rect width="38" height="47" fill="white"/>
</clipPath>
</defs>
</svg>
