<svg width="46" height="57" viewBox="0 0 46 57" fill="none" xmlns="http://www.w3.org/2000/svg">
<path d="M46 42.9691C45.4458 43.7542 44.8566 44.5177 44.2342 45.2496C43.6118 45.9842 42.9615 46.6882 42.278 47.366C41.599 48.0439 40.8859 48.6893 40.1449 49.3067C39.4084 49.9233 38.6423 50.5046 37.8519 51.0527C37.0642 51.6052 36.2505 52.1217 35.417 52.6022C34.5862 53.079 33.7303 53.5207 32.8564 53.9263C31.9861 54.331 31.0978 54.6979 30.188 55.0242C29.2889 55.3541 28.3683 55.6407 27.4333 55.885C26.5091 56.132 25.5705 56.3393 24.6176 56.5042C23.6754 56.6692 22.7225 56.7954 21.7552 56.8738C20.8058 56.9567 19.8457 57 18.8748 57C17.9039 57 16.9428 56.9567 15.9944 56.8738C15.0271 56.7954 14.0705 56.6692 13.132 56.5042C12.179 56.3393 11.2368 56.132 10.3162 55.885L12.435 48.0015C13.1284 48.1908 13.837 48.3449 14.5519 48.4666C15.2606 48.5919 15.98 48.6857 16.7066 48.747C17.4215 48.8073 18.1446 48.8398 18.8748 48.8398C19.6041 48.8398 20.328 48.8073 21.0438 48.747C21.7695 48.6857 22.489 48.5919 23.1976 48.4666C23.9134 48.3449 24.6212 48.1908 25.3155 48.0015C26.0196 47.8185 26.7103 47.6022 27.3902 47.3552C28.0737 47.111 28.7428 46.8351 29.3967 46.5305C30.055 46.2258 30.6981 45.895 31.3241 45.5326C31.9537 45.1739 32.5681 44.7836 33.1617 44.3708C33.7581 43.9588 34.3338 43.5208 34.888 43.0583C35.4449 42.5959 35.9811 42.1083 36.4957 41.599C37.0094 41.0861 37.5025 40.5588 37.9696 40.0063C38.4375 39.4546 38.883 38.8804 39.3006 38.2882L46 42.9691ZM38.6692 5.0562L33.3611 11.8323C36.1005 15.1 37.7495 19.3079 37.7495 23.9007C37.7495 34.2978 29.2997 42.7266 18.8757 42.7266C8.45076 42.7266 0 34.2978 0 23.9007C0 13.5037 8.45076 5.07549 18.8757 5.07549C21.7183 5.07558 24.4146 5.7034 26.8324 6.82634L32.181 0L38.6692 5.0562ZM18.8757 13.1607C12.9281 13.1607 8.10676 17.969 8.10586 23.9007C8.10586 29.8325 12.9281 34.6415 18.8757 34.6415C24.8224 34.6414 29.6437 29.8324 29.6437 23.9007C29.6437 17.9691 24.8224 13.1608 18.8757 13.1607Z" fill="black"/>
</svg>
