<svg width="65" height="59" viewBox="0 0 65 59" fill="none" xmlns="http://www.w3.org/2000/svg">
<path d="M64.72 22.8682L58.503 12.1105C58.1298 11.4644 57.4398 11.0665 56.6928 11.0665H45.6931L39.9011 1.04379C39.5277 0.397925 38.8376 0 38.0909 0H25.6564C24.9099 0 24.2198 0.397925 23.8462 1.04379L17.6296 11.8015C17.2563 12.4474 17.2563 13.2437 17.6296 13.8895L23.5606 24.1527L18.3359 33.3083H8.30723C7.56049 33.3083 6.87044 33.7062 6.49707 34.3523L0.280026 45.1102C-0.0933421 45.7561 -0.0933421 46.5524 0.280026 47.1983L6.49707 57.9562C6.87044 58.6021 7.56049 59 8.30723 59H20.7413C21.4878 59 22.1779 58.6021 22.5515 57.9562L28.7685 47.1983C29.1419 46.5524 29.1419 45.7561 28.7685 45.1102L22.5515 34.3523L27.4941 25.6915H36.6563L42.4483 35.7142C42.8217 36.3601 43.5118 36.7582 44.2583 36.7582H56.6926C57.4393 36.7582 58.1294 36.3601 58.5027 35.7142L64.7198 24.9564C65.0934 24.3101 65.0934 23.5143 64.72 22.8682ZM26.8632 4.17581H36.8844L41.8946 12.8458L36.8844 21.5155H26.8632L21.8531 12.8458L26.8632 4.17581ZM24.5453 46.1545L19.5348 54.824H9.514L4.50329 46.1545L9.514 37.4845H19.5348L24.5453 46.1545ZM55.4862 32.582H45.465L40.455 23.9122L45.465 15.2425H55.486L60.4965 23.9122L55.4862 32.582Z" fill="black"/>
</svg>
