<svg width="37" height="46" viewBox="0 0 37 46" fill="none" xmlns="http://www.w3.org/2000/svg">
<path d="M7.75705 0.0211996C14.2291 -0.197481 17.37 1.18962 17.4853 8.22586C17.4941 8.76409 17.6859 11.3345 18.2435 11.5129C19.475 9.90687 17.9277 2.40444 20.4975 0.837656C22.2745 -0.245844 26.5129 -0.0875313 28.4883 0.283019C31.293 0.809032 34.6771 1.96972 36.4868 4.26417C37.1458 5.08558 36.703 5.73586 35.7342 5.79094C32.1594 5.99402 28.5497 4.92754 24.9689 5.35052C24.4225 5.4151 24.0021 5.65236 23.5631 5.95746C23.2611 6.61947 22.9295 7.86026 22.7126 8.58475C22.339 9.833 21.7446 11.1989 21.6852 12.4885C23.0017 14.497 23.259 15.8339 23.8822 18.0688C24.7001 21.002 23.7627 21.2635 23.0493 23.6814C23.4357 24.8417 24.9621 26.5448 25.3433 28.0133C25.6042 29.0181 25.5884 29.3011 25.6238 30.3579C25.6858 32.2095 26.0448 33.5949 27.0252 35.1616C27.8628 36.426 28.1691 37.5415 28.2392 39.0465C28.2849 40.0291 28.5694 43.9946 27.9614 44.6419C26.8628 45.8116 21.5836 45.9436 19.951 45.9764C17.7006 46.0215 10.2772 46.1596 8.64846 44.5404C7.68565 43.5832 8.82661 43.1963 8.83327 42.3865C8.83334 42.3732 8.8332 42.36 8.83334 42.3468C8.84197 41.7447 8.65512 41.1439 8.55327 40.5527C7.99326 37.3009 10.1707 35.5452 10.8953 32.6608C11.357 30.8228 11.1727 28.9351 11.8533 27.1353C12.3194 25.9028 13.0993 24.8626 13.8529 23.7949C13.5726 23.0865 12.9338 22.0715 12.7611 21.2959C12.3578 19.4859 13.3364 16.5673 13.8036 14.7659C13.9457 14.2182 14.6178 13.1548 14.6477 12.7265C14.7448 11.3391 13.3449 6.58969 12.6234 5.63934C10.854 3.30833 5.31235 4.31946 2.72718 4.48632C2.01568 4.53224 1.22103 4.67162 0.502386 4.59348C0.294865 4.57097 0.124471 4.49757 0.000176057 4.33011C-0.012811 3.8783 0.696105 2.90895 0.999566 2.57245C2.44813 0.966194 5.70312 0.147429 7.75705 0.0211996Z" fill="black"/>
<path d="M17.9616 38.2158C19.8207 38.2041 21.4374 41.9218 19.9258 43.6064C19.331 43.8031 18.8956 43.8507 18.2801 43.8774C13.862 43.8352 15.654 39.2594 17.9616 38.2158Z" fill="#F7F7F7"/>
</svg>
